{"title":"Warcraft 2016 Movies HDRip XviD AAC New Source with Sample ☻rDX☻","uid":15486035,"size":739394283,"categoryP":"video","categoryS":"movies","magnet":"?xt=urn:btih:892d1a6df0a2a828e3a9be8c8a04c0d3130dc960&amp;dn=Warcraft+2016+Movies+HDRip+XviD+AAC+New+Source+with+Sample+%E2%98%BBrDX%E2%98%BB&amp;tr=udp%3A%2F%2Ftracker.leechers-paradise.org%3A6969&amp;tr=udp%3A%2F%2Fzer0day.ch%3A1337&amp;tr=udp%3A%2F%2Fopen.demonii.com%3A1337&amp;tr=udp%3A%2F%2Ftracker.coppersurfer.tk%3A6969&amp;tr=udp%3A%2F%2Fexodus.desync.com%3A6969","seeders":3,"leechers":2,"uploader":"basicssom","files":2,"time":1470321556,"description":"----------------------------------------------------------------\r\nWarcraft 2016 English Movies HDRip XviD AAC New Source with Sample ☻rDX☻\r\n\r\nSCREEN SHOTS &amp; POSTER:\r\n  \nhttp://postimage.co.nr/2016/8/cheap/index.htm  \nhttp://postimage.co.nr/2016/8/cheap/1.html  \nhttp://postimage.co.nr/2016/8/cheap/2.html  \nhttp://postimage.co.nr/2016/8/cheap/3.html  \nhttp://postimage.co.nr/2016/8/cheap/4.html  \nhttp://postimage.co.nr/2016/8/cheap/5.html  \nhttp://postimage.co.nr/2016/8/cheap/6.html  \nhttp://postimage.co.nr/2016/8/cheap/7.html  \nhttp://postimage.co.nr/2016/8/cheap/8.html  \nhttp://postimage.co.nr/2016/8/cheap/9.html  \nhttp://postimage.co.nr/2016/8/cheap/10.html\r\n\r\nFormat                                   : Matroska\r\nFormat version                           : Version 4 / Version 2\r\nFile size                                : 699 MiB\r\nDuration                                 : 2 h 3 min\r\nOverall bit rate mode                    : Constant\r\nOverall bit rate                         : 794 kb/s\r\nMovie name                               : Warcraft 2016 English Movies HDRip XviD AAC New Source ☻rDX☻\r\n\r\nVideo\r\nID                                       : 2\r\nFormat                                   : AVC\r\nFormat/Info                              : Advanced Video Codec\r\nFormat profile                           :   \r\nFormat settings, CABAC                   : Yes\r\nFormat settings, ReFrames                : 2 frames\r\nFormat settings, GOP                     : M=1, N=12\r\nCodec ID                                 : V_MPEG4/ISO/AVC\r\nDuration                                 : 2 h 3 min\r\nBit rate mode                            : Constant\r\nBit rate                                 : 603 kb/s\r\nWidth                                    : 720 pixels\r\nHeight                                   : 288 pixels\r\nDisplay aspect ratio                     : 2.500\r\nFrame rate mode                          : Constant\r\nFrame rate                               : 23.976 FPS\r\nColor space                              : YUV\r\nChroma subsampling                       : 4:2:0\r\nBit depth                                : 8 bits\r\nScan type                                : Progressive\r\nBits/(Pixel*Frame)                       : 0.121\r\nStream size                              : 516 MiB (74%)\r\nTitle                                    : ☻rDX☻\r\nDefault                                  : Yes\r\nForced                                   : No\r\n\r\nAudio\r\nID                                       : 1\r\nFormat                                   : AC-3\r\nFormat/Info                              : Audio Coding 3\r\nMode extension                           : CM (complete main)\r\nFormat settings, Endianness              : Big\r\nCodec ID                                 : A_AC3\r\nDuration                                 : 2 h 3 min\r\nBit rate mode                            : Constant\r\nBit rate                                 : 192 kb/s\r\nChannel(s)                               : 2 channels\r\nChannel positions                        : Front: L R\r\nSampling rate                            : 48.0 kHz\r\nFrame rate                               : 31.250 FPS (1536 spf)\r\nCompression mode                         : Lossy\r\nStream size                              : 169 MiB (24%)\r\nTitle                                    : ☻rDX☻\r\nDefault                                  : Yes\r\nForced                                   : No\r\n\r\nIMDB \nhttp://www.imdb.com/title/tt0803096/","torrent":{"xt":"urn:btih:892d1a6df0a2a828e3a9be8c8a04c0d3130dc960","amp;dn":"Warcraft+2016+Movies+HDRip+XviD+AAC+New+Source+with+Sample+%E2%98%BBrDX%E2%98%BB","amp;tr":["udp%3A%2F%2Ftracker.leechers-paradise.org%3A6969","udp%3A%2F%2Fzer0day.ch%3A1337","udp%3A%2F%2Fopen.demonii.com%3A1337","udp%3A%2F%2Ftracker.coppersurfer.tk%3A6969","udp%3A%2F%2Fexodus.desync.com%3A6969"],"infoHash":"892d1a6df0a2a828e3a9be8c8a04c0d3130dc960","infoHashBuffer":{"type":"Buffer","data":[137,45,26,109,240,162,168,40,227,169,190,140,138,4,192,211,19,13,201,96]},"announce":[],"urlList":[]}}